<?xml version="1.0" standalone="no"?>
<!DOCTYPE svg PUBLIC "-//W3C//DTD SVG 20010904//EN"
 "http://www.w3.org/TR/2001/REC-SVG-20010904/DTD/svg10.dtd">
<svg version="1.0" xmlns="http://www.w3.org/2000/svg"
 width="512" height="512" viewBox="0 0 569.411321 622.450909"
 preserveAspectRatio="xMidYMid meet">
<metadata>Created by Svg.la</metadata>
<g transform="translate(-221.000000,890.837773) scale(0.100000,-0.100000)"
fill="#e1c27f" stroke="none">
<path d="M4502 8883 c-60 -41 -188 -169 -238 -239 -24 -33 -70 -116 -103 -184
l-60 -123 -28 48 c-89 153 -204 280 -270 300 -44 13 -103 -36 -103 -84 0 -13
-6 -21 -16 -21 -10 0 -14 -6 -11 -14 3 -8 0 -49 -8 -93 -7 -43 -16 -113 -20
-155 -6 -67 -5 -78 9 -78 9 0 16 -7 16 -16 0 -10 -6 -14 -14 -11 -10 4 -14
-12 -18 -71 -6 -90 -5 -109 16 -352 14 -157 23 -205 57 -320 22 -74 47 -160
55 -190 9 -30 34 -93 55 -139 22 -46 38 -85 37 -86 -5 -4 -193 -55 -200 -55
-11 0 -263 -107 -320 -136 -27 -14 -48 -29 -48 -34 0 -24 31 -18 115 23 97 47
226 95 400 150 61 19 118 38 128 42 14 6 17 2 17 -23 0 -16 -7 -35 -15 -42
-21 -17 -19 -30 5 -30 42 0 45 32 45 455 l0 400 33 154 c33 152 77 289 124
386 160 331 322 525 439 525 42 0 96 -56 104 -108 4 -20 11 -50 16 -66 5 -16
21 -99 35 -185 23 -139 25 -175 21 -331 -5 -183 -36 -417 -56 -430 -7 -3 -9
-14 -6 -22 7 -17 -30 -209 -46 -243 -5 -11 -21 -56 -35 -100 -15 -44 -42 -114
-61 -154 -32 -72 -36 -101 -13 -101 16 0 75 137 121 279 99 312 127 470 136
776 7 224 -5 350 -48 501 -38 136 -48 155 -105 193 -58 38 -89 39 -142 4z
m247 -253 c7 -30 15 -66 18 -79 4 -15 2 -22 -4 -18 -6 4 -16 35 -23 69 -6 35
-14 72 -17 83 -4 13 -2 17 5 10 5 -5 15 -35 21 -65z m-891 -44 c16 -19 33 -44
37 -56 4 -12 27 -40 52 -62 24 -23 63 -73 85 -111 41 -67 41 -69 25 -102 -30
-63 -86 -290 -102 -410 -18 -144 -19 -361 -3 -587 6 -92 10 -170 7 -172 -2 -2
-16 -7 -31 -11 -25 -6 -28 -3 -51 47 -84 183 -85 184 -142 443 -18 84 -32 165
-30 181 1 16 -2 32 -8 36 -7 4 -11 94 -11 280 0 224 3 291 18 373 11 55 18
113 18 130 -1 19 7 39 25 57 24 25 28 26 53 13 15 -8 41 -30 58 -49z m109
-1268 c-3 -8 -6 -5 -6 6 -1 11 2 17 5 13 3 -3 4 -12 1 -19z m10 -100 c-3 -7
-5 -2 -5 12 0 14 2 19 5 13 2 -7 2 -19 0 -25z"/>
<path d="M4528 8702 c-21 -2 -47 -28 -110 -106 -98 -122 -154 -218 -213 -359
-50 -122 -99 -307 -85 -321 15 -15 17 -8 45 100 50 196 143 394 238 508 24 28
57 71 73 96 42 64 74 66 103 8 23 -49 63 -230 52 -238 -4 -3 -4 -52 0 -109 7
-123 -19 -355 -56 -503 -34 -134 -115 -360 -135 -378 -3 -3 -22 -39 -42 -81
-20 -42 -68 -127 -107 -189 -39 -62 -71 -117 -71 -122 0 -14 -18 -9 -24 7 -3
9 -15 80 -26 158 -26 180 -27 187 -45 187 -20 0 -19 -33 5 -162 28 -153 48
-216 73 -229 25 -14 16 -23 121 141 110 172 229 447 282 649 19 75 39 138 45
139 6 3 6 8 0 15 -5 8 -4 55 5 127 16 139 18 295 4 376 -32 182 -60 269 -88
282 -9 4 -29 6 -44 4z"/>
<path d="M4093 7823 c-9 -76 -8 -345 2 -410 5 -36 10 -43 29 -43 23 0 23 2 14
53 -6 28 -8 145 -6 260 3 189 2 207 -14 207 -13 0 -18 -14 -25 -67z m14 -200
c-2 -32 -3 -8 -3 52 0 61 1 87 3 58 2 -29 2 -78 0 -110z"/>
<path d="M4433 6962 c-39 -81 -76 -168 -83 -193 -6 -24 -25 -84 -41 -132 -33
-100 -36 -129 -13 -151 23 -23 24 -21 18 27 -5 33 -1 56 14 90 12 26 23 47 26
47 7 0 96 -188 96 -201 0 -5 -6 -9 -14 -9 -8 0 -18 -5 -22 -11 -5 -8 1 -10 19
-7 20 4 27 0 31 -16 9 -32 7 -36 -14 -36 -11 0 -20 -4 -20 -10 0 -5 10 -9 22
-7 22 2 23 -1 22 -68 -2 -200 -19 -293 -79 -423 -33 -71 -36 -92 -14 -92 6 0
32 47 59 104 48 102 49 103 89 110 22 3 60 2 84 -3 57 -13 176 -80 251 -141
33 -28 66 -50 73 -50 6 0 13 -5 15 -12 4 -10 13 -10 45 0 22 7 50 12 63 12 12
0 54 11 93 24 239 81 409 114 529 100 42 -5 62 -3 78 9 27 19 20 23 -55 31
-70 7 -263 -15 -345 -40 -63 -19 -257 -71 -312 -83 -21 -4 -44 -14 -52 -20
-12 -10 -25 -7 -70 21 -31 18 -56 38 -56 45 0 6 -31 34 -70 63 -58 43 -85 55
-165 76 -53 13 -107 24 -121 24 -18 0 -24 4 -21 14 3 7 9 34 12 60 5 29 12 46
21 46 8 0 14 5 14 10 0 6 -7 10 -15 10 -12 0 -15 17 -15 93 0 51 -7 119 -15
151 -15 57 -100 263 -116 280 -4 5 -1 23 8 40 33 64 143 349 137 357 -3 5 -8
9 -12 9 -4 0 -39 -67 -79 -148z"/>
<path d="M3190 6783 c-166 -98 -332 -272 -418 -438 -38 -75 -92 -200 -92 -214
0 -6 -7 -11 -16 -11 -14 0 -14 -3 -4 -15 7 -8 8 -15 3 -15 -22 0 -113 -221
-113 -274 0 -14 -4 -27 -8 -30 -4 -2 -37 1 -72 9 -36 7 -99 16 -140 20 -41 3
-84 9 -95 11 -16 4 -17 3 -5 -4 8 -5 49 -13 90 -16 66 -7 116 -15 197 -32 18
-3 24 -13 29 -52 3 -26 7 -51 7 -57 1 -5 -11 -13 -28 -17 -27 -6 -27 -7 8 -5
22 2 37 -2 37 -8 0 -6 9 -21 21 -34 27 -28 16 -42 -62 -82 -32 -16 -61 -34
-65 -40 -7 -11 94 41 123 63 17 13 51 1 58 -21 4 -13 -28 -50 -120 -141 -69
-68 -125 -129 -125 -134 0 -6 33 23 73 64 39 41 99 100 132 130 l60 56 47 -31
c38 -24 47 -36 48 -60 1 -28 2 -29 10 -7 9 22 11 22 47 7 56 -23 66 -37 102
-130 19 -47 36 -84 38 -82 2 3 -9 38 -26 78 -16 41 -25 75 -20 77 5 2 32 -8
61 -22 45 -22 75 -27 203 -36 83 -5 176 -11 209 -12 l58 -2 -7 -71 c-14 -121
-12 -159 8 -163 13 -3 17 3 17 30 0 50 29 181 44 196 7 7 39 14 72 16 32 2 65
4 72 5 6 1 12 10 12 22 0 19 -4 20 -47 15 -27 -4 -92 -9 -145 -11 -53 -2 -101
-6 -105 -8 -9 -5 -86 3 -253 27 -145 21 -261 80 -299 154 -14 27 -31 28 -38 2
-6 -24 -7 -24 -41 -2 -66 43 -145 153 -155 217 -10 60 6 76 29 28 13 -25 32
-44 56 -55 42 -20 62 -49 53 -78 -3 -10 -1 -21 5 -25 6 -4 10 9 10 35 0 30 6
46 23 60 114 97 155 150 116 150 -6 0 -37 -27 -68 -60 -62 -64 -88 -73 -129
-44 -12 8 -29 28 -37 45 -9 17 -24 29 -35 29 -25 0 -26 24 -2 67 61 111 93
178 117 248 15 44 36 97 47 119 12 23 17 48 14 62 -4 13 -2 24 3 24 5 0 19 17
31 37 66 113 283 332 396 401 34 21 59 42 57 50 -7 18 -23 15 -73 -15z"/>
<path d="M3317 6502 c-23 -14 -77 -103 -77 -127 0 -16 21 10 42 52 12 25 39
56 58 69 39 27 20 33 -23 6z"/>
<path d="M3450 6470 c-88 -25 -141 -79 -175 -180 -33 -98 -47 -237 -28 -266
21 -33 63 -46 150 -48 77 -1 78 -1 135 42 59 46 75 73 98 171 22 95 -9 231
-62 264 -29 18 -85 26 -118 17z m105 -64 c37 -39 55 -99 55 -181 0 -67 -15
-65 -24 2 -8 64 -45 140 -86 181 l-34 32 28 0 c20 0 39 -11 61 -34z m-146 -60
c6 -8 14 -37 18 -65 5 -41 2 -55 -12 -71 -41 -45 -85 -13 -85 61 0 69 47 114
79 75z m-22 -212 c-9 -9 -28 6 -21 18 4 6 10 6 17 -1 6 -6 8 -13 4 -17z m-86
-67 c39 -49 42 -57 24 -57 -23 0 -65 45 -65 70 0 28 11 25 41 -13z"/>
<path d="M5797 5943 c-15 -15 -5 -21 43 -28 44 -6 50 -10 50 -31 0 -28 16 -32
23 -5 4 15 11 17 43 12 33 -6 39 -11 37 -29 -2 -12 2 -22 7 -22 6 0 10 7 10
16 0 19 34 15 94 -10 28 -12 34 -19 30 -38 -4 -23 -4 -23 7 -1 l11 21 55 -19
c61 -21 217 -102 246 -128 10 -9 47 -36 83 -61 35 -25 111 -82 169 -127 67
-53 107 -78 111 -71 5 7 -19 36 -57 70 -260 237 -521 375 -828 439 -100 20
-124 23 -134 12z m701 -264 c-2 -6 -8 -10 -13 -10 -5 0 -11 4 -13 10 -2 6 4
11 13 11 9 0 15 -5 13 -11z"/>
<path d="M3280 5789 c-117 -14 -267 -45 -258 -54 3 -3 43 4 90 15 47 11 150
26 229 34 92 8 121 13 79 13 -36 0 -99 -3 -140 -8z"/>
<path d="M3513 5793 c15 -2 37 -2 50 0 12 2 0 4 -28 4 -27 0 -38 -2 -22 -4z"/>
<path d="M4310 5714 c-30 -35 -32 -35 -51 -18 -21 19 -24 13 -9 -15 6 -13 5
-24 -5 -37 -13 -18 -14 -18 -41 6 l-27 25 19 -33 19 -34 -30 -24 c-46 -37
-235 -149 -308 -182 -36 -17 -91 -37 -121 -46 -53 -16 -75 -31 -62 -44 26 -25
376 121 441 185 17 16 46 41 66 56 32 24 37 26 43 11 8 -21 20 -10 21 19 0 18
5 22 30 20 17 0 24 1 18 4 -21 8 -15 30 22 79 32 42 37 64 15 64 -4 0 -22 -16
-40 -36z"/>
<path d="M3047 5641 c-2 -10 1 -18 7 -18 61 5 404 -72 531 -119 14 -5 17 -4
10 4 -24 25 -313 96 -477 117 -32 4 -48 11 -48 21 0 20 -17 17 -23 -5z"/>
<path d="M2435 5635 c-5 -2 -58 -13 -117 -26 -60 -12 -108 -25 -108 -29 0 -3
35 2 78 11 42 10 106 25 142 32 36 8 54 15 40 15 -14 0 -29 -1 -35 -3z"/>
<path d="M3006 5562 c5 -5 34 -19 64 -32 102 -42 271 -129 321 -165 27 -19 49
-31 49 -27 0 20 -218 142 -352 198 -86 36 -98 39 -82 26z"/>
<path d="M6845 5390 c-4 -7 22 -41 63 -83 94 -95 192 -214 192 -233 0 -8 19
-43 42 -77 70 -104 122 -231 218 -542 33 -104 49 -227 50 -375 0 -120 8 -160
31 -160 17 0 19 9 19 105 0 210 -35 421 -100 608 -55 158 -136 333 -195 420
-55 83 -278 337 -302 344 -6 2 -14 -1 -18 -7z m373 -458 c40 -76 52 -109 33
-98 -4 3 -16 27 -26 53 -10 26 -33 69 -51 96 -38 52 -43 69 -16 44 10 -9 37
-52 60 -95z m91 -209 c18 -46 31 -97 22 -87 -15 15 -51 114 -42 114 5 0 14
-12 20 -27z"/>
<path d="M3438 5022 c-15 -3 -18 -15 -18 -68 0 -142 47 -312 139 -510 52 -109
157 -249 237 -314 35 -29 64 -56 64 -60 0 -11 193 -140 208 -140 6 0 14 -17
17 -37 4 -21 13 -76 22 -122 12 -61 14 -112 9 -188 -3 -57 -9 -151 -12 -210
-6 -105 -24 -173 -46 -173 -20 0 -175 -79 -206 -104 -38 -33 -70 -93 -92 -173
-14 -52 -15 -65 -4 -74 18 -15 34 -3 34 25 0 70 67 197 112 211 11 4 35 17 53
30 19 12 52 25 74 29 26 4 44 13 51 26 6 11 17 20 26 20 39 0 65 167 71 448 5
197 3 229 -12 265 -10 23 -21 51 -25 62 -5 11 -11 36 -15 56 -3 20 -19 54 -36
75 -17 22 -55 76 -85 122 -51 76 -74 98 -74 71 0 -26 103 -191 125 -199 18 -7
23 -19 28 -61 4 -29 4 -55 2 -57 -7 -7 -101 57 -154 104 -113 98 -137 123
-185 189 -29 39 -55 78 -59 88 -4 10 -11 15 -17 12 -6 -4 -30 35 -56 92 -95
204 -127 307 -148 477 -9 79 -13 91 -28 88z m42 -260 c12 -52 33 -118 47 -148
30 -65 25 -97 -5 -37 -26 50 -67 206 -75 283 -6 62 -2 49 33 -98z"/>
<path d="M4786 4551 c-3 -4 6 -30 21 -56 39 -74 45 -101 48 -220 3 -128 -15
-264 -51 -389 -24 -85 -127 -350 -144 -371 -5 -5 -16 -38 -25 -73 -18 -71 -86
-216 -115 -247 -10 -11 -31 -47 -45 -80 -15 -33 -47 -92 -71 -131 -24 -39 -44
-80 -44 -92 0 -26 -39 -64 -102 -100 -31 -17 -48 -34 -48 -46 0 -15 -3 -16
-15 -6 -16 13 -187 9 -232 -5 -22 -7 -23 -5 -23 56 0 70 21 118 61 139 13 8
18 15 12 21 -15 15 -80 -31 -92 -64 -6 -16 -13 -51 -17 -78 -6 -47 -16 -60
-29 -39 -3 6 -17 10 -31 10 -18 0 -24 5 -24 23 0 47 32 131 61 158 32 30 29
43 -8 26 -30 -13 -54 -60 -78 -149 -22 -84 -14 -98 55 -98 43 0 49 -3 54 -25
5 -18 13 -25 31 -25 13 0 26 4 29 9 3 5 45 10 93 11 49 1 105 3 125 4 27 1 55
15 111 56 60 44 84 70 120 130 73 121 182 345 235 485 41 106 77 186 99 214 2
3 13 -5 26 -16 56 -51 251 -153 293 -153 7 0 25 -20 39 -45 15 -24 40 -56 57
-70 16 -14 47 -48 68 -77 l39 -51 -42 -44 -42 -44 -92 7 c-56 4 -110 2 -135
-4 -24 -6 -65 -16 -91 -23 -52 -13 -120 -57 -137 -88 -6 -11 -12 -33 -15 -48
-2 -15 -11 -55 -19 -88 -23 -87 -22 -89 29 -103 33 -9 45 -17 45 -31 0 -10 8
-22 18 -26 29 -12 250 -16 257 -4 4 5 38 9 78 8 40 -1 101 3 137 9 167 29 223
35 330 32 63 -1 159 -3 212 -4 54 0 98 -4 98 -8 0 -5 51 -8 113 -8 61 -1 174
-5 250 -9 76 -5 154 -5 175 0 25 5 39 4 43 -3 5 -8 11 -9 21 -1 7 6 47 18 88
28 91 20 191 59 245 95 22 14 60 37 84 49 25 12 79 54 122 93 l78 70 38 -30
c47 -38 130 -82 153 -82 15 0 30 18 30 35 0 2 -25 12 -56 21 -30 10 -73 33
-94 52 l-40 33 40 54 c75 102 100 148 100 184 -1 34 -2 35 -16 16 -9 -11 -33
-47 -55 -80 -65 -100 -151 -202 -209 -246 -30 -24 -70 -56 -88 -73 l-33 -31
-20 24 c-22 27 -36 23 -20 -7 8 -15 6 -23 -8 -36 -26 -23 -48 -20 -55 9 -4 14
-11 25 -16 25 -14 0 -12 -12 6 -38 15 -22 14 -23 -23 -39 -70 -29 -94 -33
-100 -17 -7 20 -21 18 -19 -3 2 -24 -121 -68 -146 -53 -11 6 -19 6 -23 0 -3
-6 -46 -10 -95 -10 -74 0 -91 -3 -99 -17 -6 -11 -11 -13 -11 -5 0 28 -130 59
-130 31 0 -7 -14 -8 -37 -5 -81 13 -473 18 -603 8 -190 -15 -669 -36 -675 -30
-15 15 32 93 77 128 50 40 50 62 1 36 -35 -18 -66 -51 -87 -94 l-17 -33 -32
19 c-24 14 -31 25 -29 43 4 40 54 103 99 124 23 11 42 23 43 28 0 13 -55 7
-78 -9 -12 -8 -22 -12 -22 -9 0 21 26 47 72 73 l53 29 204 -3 c113 -2 231 -9
264 -15 33 -5 76 -9 97 -8 30 3 52 -7 118 -49 45 -28 82 -58 82 -67 0 -20 26
-19 34 1 9 24 -18 49 -99 97 -53 30 -229 147 -264 174 -3 2 1 9 7 15 21 21 13
31 -12 15 -20 -13 -26 -14 -35 -3 -8 9 -7 18 4 32 23 31 18 53 -6 24 -15 -18
-22 -21 -26 -11 -3 7 -17 23 -30 35 -32 27 -66 93 -53 101 17 11 11 23 -9 18
-23 -6 -37 22 -78 147 -30 94 -44 267 -22 281 10 6 10 9 2 9 -14 0 -17 68 -5
135 6 34 12 41 37 46 23 5 25 7 8 8 -13 0 -23 7 -23 15 0 46 113 238 173 293
37 35 43 44 31 53 -11 10 -26 -1 -74 -52 -144 -149 -208 -293 -226 -508 -7
-80 10 -191 45 -308 l20 -64 -27 7 c-48 11 -166 77 -208 115 -22 20 -47 39
-55 42 -11 4 -8 16 14 61 23 47 68 195 108 357 5 19 9 91 9 160 0 138 -18 236
-52 286 -24 36 -55 58 -62 45z m244 -870 c0 -45 -6 -37 -14 19 -4 31 -3 40 4
30 5 -8 10 -30 10 -49z m30 -103 c0 -4 -4 -8 -10 -8 -5 0 -10 4 -10 9 0 5 -3
18 -6 28 -5 16 -4 16 10 -1 9 -11 16 -23 16 -28z m174 -293 c9 -14 13 -25 10
-25 -11 0 -44 32 -44 42 0 16 18 8 34 -17z m113 -141 c18 -14 33 -29 33 -35 0
-5 -29 -9 -65 -9 -36 0 -65 3 -65 7 0 8 51 63 58 63 3 0 20 -11 39 -26z"/>
<path d="M5494 4540 c-75 -26 -175 -92 -165 -109 6 -10 19 -5 54 22 25 19 70
43 99 52 55 18 86 39 71 48 -4 2 -31 -4 -59 -13z"/>
<path d="M7405 3813 c-4 -43 -13 -103 -21 -133 -9 -30 -17 -68 -18 -85 -2 -16
-17 -72 -35 -123 -34 -101 -36 -112 -21 -112 14 0 30 35 70 150 34 102 37 105
65 105 17 0 35 3 40 6 6 4 24 10 42 13 18 4 48 24 70 48 57 62 127 128 136
128 4 0 7 -16 7 -36 0 -30 3 -35 18 -29 31 12 35 10 43 -19 4 -16 20 -41 34
-56 25 -26 26 -33 21 -91 -11 -130 -27 -209 -53 -266 -15 -32 -27 -65 -28 -73
-4 -54 -18 -71 -82 -100 -55 -25 -64 -32 -58 -50 6 -17 -7 -26 -96 -70 -75
-37 -114 -50 -146 -50 -44 0 -52 -7 -31 -28 24 -24 83 -13 169 31 157 79 220
138 285 265 25 50 50 92 54 92 5 0 7 32 7 71 -2 51 2 73 12 79 10 5 14 32 15
96 1 88 0 90 -38 149 -49 74 -95 125 -114 125 -17 0 -142 -81 -142 -92 0 -4
-13 -23 -30 -41 -22 -25 -41 -36 -72 -40 -24 -4 -53 -9 -64 -13 -21 -6 -21 -4
-12 43 5 26 12 78 17 116 7 65 6 67 -15 67 -21 0 -23 -6 -29 -77z"/>
</g>
</svg>
